<svg xmlns="http://www.w3.org/2000/svg" width="18" height="19" viewBox="0 0 18 19"><defs><style>.a,.b,.d{fill:none;}.a,.b{stroke:#af172b;}.b{stroke-linecap:round;}.c{stroke:none;}</style></defs><g transform="translate(-18 -118)"><g class="a" transform="translate(22 122)"><path class="c" d="M5,0H5a5,5,0,0,1,5,5v5a0,0,0,0,1,0,0H0a0,0,0,0,1,0,0V5A5,5,0,0,1,5,0Z"/><path class="d" d="M5,.5H5A4.5,4.5,0,0,1,9.5,5V9.385a.115.115,0,0,1-.115.115H.615A.115.115,0,0,1,.5,9.385V5A4.5,4.5,0,0,1,5,.5Z"/></g><g class="a" transform="translate(19.5 133)"><path class="c" d="M1,0H14a1,1,0,0,1,1,1V4a0,0,0,0,1,0,0H0A0,0,0,0,1,0,4V1A1,1,0,0,1,1,0Z"/><rect class="d" x="0.5" y="0.5" width="14" height="3" rx="0.5"/></g><g class="a" transform="translate(20.5 131)"><path class="c" d="M1,0H12a1,1,0,0,1,1,1V3a0,0,0,0,1,0,0H0A0,0,0,0,1,0,3V1A1,1,0,0,1,1,0Z"/><rect class="d" x="0.5" y="0.5" width="12" height="2" rx="0.5"/></g><path class="b" d="M25.938,124.026a1.818,1.818,0,0,0-1.919,1.919" transform="translate(0.603 0.604)"/><line class="b" x2="2" transform="translate(18.5 127.5)"/><line class="b" x2="2" transform="translate(33.5 127.5)"/><line class="b" x2="2" transform="translate(27 118.5) rotate(90)"/><line class="b" x2="2" transform="translate(19.793 120.793) rotate(45)"/><line class="b" x2="2" transform="translate(32.793 122.207) rotate(-45)"/></g></svg>