<svg xmlns="http://www.w3.org/2000/svg" width="13.495" height="15.404" viewBox="0 0 13.495 15.404"><defs><style>.a,.b{fill:none;stroke:#fff;}.b{stroke-linecap:round;}</style></defs><g transform="translate(0.509 0.5)"><g transform="translate(0)"><path class="a" d="M55.109,12.63l-1.071-1.786a5.3,5.3,0,0,1-.756-2.729V6.551a4.373,4.373,0,0,0-3.12-4.183V1.248a1.248,1.248,0,1,0-2.5,0v1.12a4.373,4.373,0,0,0-3.12,4.183V8.115a5.307,5.307,0,0,1-.756,2.728L42.72,12.629a.312.312,0,0,0,.267.473H54.841a.312.312,0,0,0,.268-.472Z" transform="translate(-42.675)"/></g><g transform="translate(4.274 13.156)"><g transform="translate(0)"><path class="a" d="M188.815,469.333a2.171,2.171,0,0,0,3.929,0Z" transform="translate(-188.815 -469.333)"/></g></g><path class="b" d="M25.666,124.026a1.56,1.56,0,0,0-1.647,1.647" transform="translate(-20.065 -119.653)"/></g></svg>