<svg xmlns="http://www.w3.org/2000/svg" width="19" height="17.387" viewBox="0 0 19 17.387"><defs><style>.a,.b,.d{fill:none;}.a{stroke:#454d5a;}.b{stroke:#af172b;}.c{stroke:none;}</style></defs><g transform="translate(1816 -489.387)"><g class="a" transform="translate(-1816 489.387)"><rect class="c" width="19" height="14"/><rect class="d" x="0.5" y="0.5" width="18" height="13"/></g><g class="a" transform="translate(-1807.726 504.323)"><circle class="c" cx="1.226" cy="1.226" r="1.226"/><circle class="d" cx="1.226" cy="1.226" r="0.726"/></g><line class="a" y2="1.839" transform="translate(-1806.5 502.79)"/><line class="a" x1="8.581" transform="translate(-1815.694 505.548)"/><line class="a" x1="8.581" transform="translate(-1805.887 505.548)"/><g transform="translate(-1810.484 492.065)"><g transform="translate(0 0)"><path class="b" d="M6.913,6.768l-.038-.014-.148-.361.016-.037c.448-1.038.418-1.069.343-1.144l-.6-.6a.158.158,0,0,0-.1-.042,3.773,3.773,0,0,0-1.019.408L5.329,5l-.364-.15L4.95,4.812c-.415-1.05-.458-1.05-.561-1.05H3.544c-.1,0-.15,0-.535,1.052l-.015.038L2.632,5,2.6,4.988A5.507,5.507,0,0,0,1.559,4.6a.159.159,0,0,0-.1.042l-.6.6c-.076.076-.107.108.364,1.125l.017.038-.148.36-.036.014C0,7.192,0,7.233,0,7.341v.845c0,.108,0,.153,1.055.539l.038.014.148.359-.016.037C.776,10.173.8,10.2.881,10.279l.6.6a.163.163,0,0,0,.105.042A3.787,3.787,0,0,0,2.6,10.509l.035-.017L3,10.643l.014.037c.416,1.05.458,1.05.562,1.05h.845c.106,0,.15,0,.536-1.053l.014-.038.363-.15.035.014a5.477,5.477,0,0,0,1.037.388.159.159,0,0,0,.105-.042l.6-.6c.075-.077.107-.108-.366-1.124L6.73,9.089l.148-.359.035-.014C7.968,8.3,7.968,8.258,7.968,8.15V7.306C7.968,7.2,7.968,7.152,6.913,6.768ZM3.984,9.116a1.37,1.37,0,1,1,1.369-1.37A1.371,1.371,0,0,1,3.984,9.116Z" transform="translate(0 -3.762)"/></g></g></g></svg>