<svg xmlns="http://www.w3.org/2000/svg" width="26.236" height="26.09" viewBox="0 0 26.236 26.09"><defs><style>.a{fill:#fff;}.b,.c{fill:none;}.b{stroke:#454d5a;stroke-linejoin:round;}.c{stroke:#af172b;stroke-linecap:round;}.d,.e{stroke:none;}.e{fill:#454d5a;}</style></defs><g transform="translate(-1282 261.051)"><g transform="translate(1282 -261)"><g class="a"><path class="d" d="M 17.97908210754395 25.53870391845703 L 0.5000020265579224 25.53870391845703 L 0.5000020265579224 0.5000038743019104 L 12.98011684417725 0.5000038743019104 L 17.97908210754395 5.618394374847412 L 17.97908210754395 25.53870391845703 Z"/><path class="e" d="M 1.000001907348633 1.000003814697266 L 1.000001907348633 25.03870391845703 L 17.47908210754395 25.03870391845703 L 17.47908210754395 5.822044372558594 L 12.76955223083496 1.000003814697266 L 1.000001907348633 1.000003814697266 M 1.9073486328125e-06 3.814697265625e-06 L 13.19069194793701 3.814697265625e-06 L 18.47908210754395 5.41473388671875 L 18.47908210754395 26.03870391845703 L 1.9073486328125e-06 26.03870391845703 L 1.9073486328125e-06 3.814697265625e-06 Z"/></g><path class="b" d="M1297.493-260.466v5.113h5.007Z" transform="translate(-1284.48 260.915)"/></g><g transform="translate(1290.82 -251.428)"><line class="c" x2="15.959" transform="translate(0 3.447)"/><path class="c" d="M1308.2-249.6l3.526,3.526-3.526,3.526" transform="translate(-1295.012 249.604)"/></g></g></svg>