<svg xmlns="http://www.w3.org/2000/svg" width="97.143" height="22.584" viewBox="0 0 97.143 22.584"><defs><style>.a{fill:#af172b;fill-rule:evenodd;}</style></defs><path class="a" d="M17.991,6.95a16.24,16.24,0,0,0-6.72-1.739c-4.986,0-6.72,3.043-6.72,5.65,0,3.26,2.384,5.433,6.286,5.433a8.49,8.49,0,0,0,3.035-.652V13.47H11.055V10.21h7.153V17.6c-1.3,1.3-4.552,2.608-7.587,2.608C4.552,20.207,0,16.3,0,10.645S4.552,1.3,10.838,1.3a16.643,16.643,0,0,1,7.153,1.521V6.95" transform="translate(0 2.377)"/><path class="a" d="M28.408,1.4V11.615c0,6.3-4.118,8.259-9.1,8.259-5.2,0-9.1-2.608-9.1-8.259V1.4h4.335V11.832a4.276,4.276,0,0,0,4.552,4.347c2.384,0,4.552-1.3,4.552-4.347V1.617h4.769" transform="translate(11.98 2.494)"/><path class="a" d="M24.952,16.4h3.035c4.552,0,5.853-3.043,5.853-5.651,0-3.043-1.734-5.651-5.853-5.651H24.952V16.4m3.468-15c6.5,0,9.971,4.13,9.971,9.128,0,5.216-3.468,9.128-10.621,9.128H20.4V1.617Z" transform="translate(23.96 2.494)"/><path class="a" d="M43.423,19.657H30.2V1.4H43.423V4.877H34.752V8.572h8.237v3.26H34.752V16.4h8.671v3.26" transform="translate(35.458 2.494)"/><path class="a" d="M52.173,19.657H38.3V1.4h4.552v15h9.321v3.26" transform="translate(44.97 2.494)"/><path class="a" d="M12.3,1.951A1.77,1.77,0,0,1,14.034,0a1.819,1.819,0,0,1,1.951,1.951,1.772,1.772,0,0,1-1.951,1.734c-.867-.217-1.734-.867-1.734-1.734" transform="translate(14.362)"/><path class="a" d="M14.9,1.951A1.77,1.77,0,0,1,16.634,0a1.935,1.935,0,0,1,1.951,1.951,1.911,1.911,0,0,1-1.951,1.734C15.55,3.468,14.9,2.818,14.9,1.951" transform="translate(17.398)"/></svg>