<svg xmlns="http://www.w3.org/2000/svg" width="17.977" height="21.867" viewBox="0 0 17.977 21.867"><defs><style>.a{fill:#fff;}.b,.c{fill:none;}.b{stroke:#454d5a;}.c{stroke:#af172b;stroke-linecap:round;}.d,.e{stroke:none;}.e{fill:#454d5a;}</style></defs><g transform="translate(-4331.5 56.637)"><g class="a" transform="translate(4337.212 -56.637)"><path class="d" d="M 5.986354351043701 2.307981491088867 L 0.5655868053436279 2.307981491088867 C 0.8410641551017761 1.274957895278931 1.951513290405273 0.5000014901161194 3.275489807128906 0.5000014901161194 C 4.599833011627197 0.5000014901161194 5.71079683303833 1.274970650672913 5.986354351043701 2.307981491088867 Z"/><path class="e" d="M 5.171199798583984 1.807981491088867 C 4.76281213760376 1.321275591850281 4.065470218658447 1.000001430511475 3.275489807128906 1.000001430511475 C 2.485782146453857 1.000001430511475 1.788756132125854 1.321277976036072 1.380568146705627 1.807981491088867 L 5.171199798583984 1.807981491088867 M 6.551959991455078 2.807981491088867 L 6.550869941711426 2.807981491088867 L -2.426910441499786e-07 2.807981491088867 C -2.426910441499786e-07 1.259231448173523 1.46986973285675 1.460800149288843e-06 3.275489807128906 1.460800149288843e-06 C 5.081609725952148 1.460800149288843e-06 6.551419734954834 1.259231448173523 6.551959991455078 2.807051420211792 L 6.551959991455078 2.807981491088867 Z"/></g><g class="a" transform="translate(4332.558 -54.862)"><path class="d" d="M 14.33034133911133 19.59211921691895 L 1.531856298446655 19.59211921691895 L 0.5270078778266907 0.4999986588954926 L 15.33518981933594 0.4999986588954926 L 14.33034133911133 19.59211921691895 Z"/><path class="e" d="M 1.054017066955566 0.9999980926513672 L 2.006233215332031 19.09211921691895 L 13.85596466064453 19.09211921691895 L 14.808180809021 0.9999980926513672 L 1.054017066955566 0.9999980926513672 M -9.5367431640625e-07 -1.9073486328125e-06 L 15.86219882965088 -1.9073486328125e-06 L 14.80471897125244 20.09211921691895 L 1.057478904724121 20.09211921691895 L -9.5367431640625e-07 -1.9073486328125e-06 Z"/></g><line class="b" x2="17.977" transform="translate(4331.5 -54.333)"/><line class="c" x2="9.517" transform="translate(4335.729 -37.413)"/><line class="c" x2="9.517" transform="translate(4335.729 -39.528)"/><line class="c" x2="9.517" transform="translate(4335.729 -41.643)"/></g></svg>