<?xml version="1.0" encoding="UTF-8" standalone="no"?>
<!-- Created with Inkscape (http://www.inkscape.org/) -->
<!-- http://www.gudel.com/fileadmin/guedel-com/Common_Files/guedel_GTC_en.pdf -->
<svg
   xmlns:svg="http://www.w3.org/2000/svg"
   xmlns="http://www.w3.org/2000/svg"
   version="1.0"
   width="250"
   height="56">
  <path
     d="M 46.54772,21.37963 C 40.59555,18.5081 34.85249,17.06831 29.09333,17.06831 C 16.43286,17.06831 11.98483,24.8705 11.98483,31.78792 C 11.98483,40.07271 18.47592,45.55034 28.12812,45.55034 C 31.0077,45.55034 32.44748,45.26881 35.87402,43.90142 L 35.87402,38.4238 L 29.09333,38.4238 L 29.09333,29.86552 L 47.50492,29.86552 L 47.50492,48.96882 C 44.02207,52.60449 35.39139,55.26689 27.86268,55.26689 C 11.5746,55.26689 0,45.34121 0,31.3777 C 0,17.14071 11.5022,7.34372 28.12812,7.34372 C 35.11792,7.34372 41.89859,8.92828 46.54772,11.1885 L 46.54772,21.37963 z M 103.91397,7.97111 L 103.91397,34.45835 C 103.91397,49.926 93.37698,55.26689 80.57172,55.26689 C 67.02648,55.26689 57.22949,48.96882 57.22949,34.5227 L 57.22949,7.97111 L 68.8604,7.97111 L 68.8604,34.80422 C 68.8604,41.51251 73.72671,45.55034 80.43498,45.55034 C 86.59631,45.55034 92.28307,42.33293 92.28307,33.97574 L 92.28307,7.97111 L 103.91397,7.97111 z M 125.55098,46.0973 L 133.15209,46.0973 C 144.85537,46.0973 148.34625,38.15032 148.34625,31.3053 C 148.34625,23.30202 144.02691,16.52135 133.00729,16.52135 L 125.55098,16.52135 L 125.55098,46.0973 z M 134.51948,7.97111 C 151.56364,7.97111 160.33108,18.58049 160.33108,31.3777 C 160.33108,44.8023 151.82909,54.64754 133.22447,54.64754 L 113.92007,54.64754 L 113.92007,7.97111 L 134.51948,7.97111 z M 203.45226,54.64754 L 169.01805,54.64754 L 169.01805,7.97111 L 202.96967,7.97111 L 202.96967,16.52135 L 180.65699,16.52135 L 180.65699,26.31029 L 201.9401,26.31029 L 201.9401,34.87662 L 180.65699,34.87662 L 180.65699,46.0973 L 203.45226,46.0973 L 203.45226,54.64754 z M 250,54.64754 L 214.39947,54.64754 L 214.39947,7.97111 L 226.04647,7.97111 L 226.04647,46.0973 L 250,46.0973 L 250,54.64754 z M 78.15868,4.48827 C 78.15868,6.97372 76.1478,8.99264 73.67042,8.99264 C 71.18498,8.99264 69.16606,6.97372 69.16606,4.48827 C 69.16606,2.01089 71.18498,0 73.67042,0 C 76.1478,0 78.15868,2.01089 78.15868,4.48827 M 92.02568,4.48827 C 92.02568,6.97372 90.01481,8.99264 87.52131,8.99264 C 85.04392,8.99264 83.03303,6.97372 83.03303,4.48827 C 83.03303,2.01089 85.04392,0 87.52131,0 C 90.01481,0 92.02568,2.01089 92.02568,4.48827"
     style="fill:#af1728;fill-opacity:1;fill-rule:nonzero;stroke:none" />
</svg>
